<mxfile host="app.diagrams.net" modified="2023-10-18T16:21:39.607Z" agent="Mozilla/5.0 (Windows NT 10.0; Win64; x64) AppleWebKit/537.36 (KHTML, like Gecko) Chrome/118.0.0.0 Safari/537.36" version="22.0.4" etag="a1bFmmW1jjd1Rv2u9CTU" type="github">
  <diagram name="Страница — 1" id="e_KvT6w4chp6uprftYfi">
    <mxGraphModel>
      <root>
        <mxCell id="0" />
        <mxCell id="1" parent="0" />
      </root>
    </mxGraphModel>
  </diagram>
</mxfile>
